{
    "asset" : {
        "generator" : "Khronos glTF Blender I/O v1.8.19",
        "version" : "2.0"
    },
    "scene" : 0,
    "scenes" : [
        {
            "name" : "Scene",
            "nodes" : [
                0,
                1,
                2,
                3,
                4,
                5,
                6,
                7,
                8,
                9
            ]
        }
    ],
    "nodes" : [
        {
            "mesh" : 0,
            "name" : "Shape_IndexedFaceSet",
            "rotation" : [
                0,
                -0.7071068286895752,
                0.7071067094802856,
                5.338508302088485e-08
            ],
            "scale" : [
                0.07982849329710007,
                0.07982849329710007,
                0.07982849329710007
            ],
            "translation" : [
                0.34371525049209595,
                0.3209775686264038,
                -0.017604989930987358
            ]
        },
        {
            "mesh" : 1,
            "name" : "Shape_IndexedFaceSet.001",
            "rotation" : [
                0,
                0.7071067094802856,
                -0.7071068286895752,
                -3.0908616110991716e-08
            ],
            "scale" : [
                0.0697261318564415,
                0.0697261318564415,
                0.0697261318564415
            ],
            "translation" : [
                -0.01594880037009716,
                0.3210568428039551,
                -0.017426710575819016
            ]
        },
        {
            "mesh" : 2,
            "name" : "Shape_IndexedFaceSet.002",
            "rotation" : [
                0,
                0.7071067094802856,
                -0.7071068286895752,
                -3.0908616110991716e-08
            ],
            "scale" : [
                0.07982849329710007,
                0.07982849329710007,
                0.07982849329710007
            ],
            "translation" : [
                -0.3756326735019684,
                0.321353942155838,
                -0.0170899648219347
            ]
        },
        {
            "mesh" : 3,
            "name" : "Shape_IndexedFaceSet.003",
            "rotation" : [
                0.49970781803131104,
                -0.5000656843185425,
                -0.5000443458557129,
                0.500182032585144
            ],
            "scale" : [
                0.02971283718943596,
                0.029712842777371407,
                0.17986175417900085
            ],
            "translation" : [
                0.2537992000579834,
                0.32099729776382446,
                -0.017560414969921112
            ]
        },
        {
            "mesh" : 4,
            "name" : "Shape_IndexedFaceSet.004",
            "rotation" : [
                0,
                0.7071067094802856,
                -0.7071068286895752,
                -3.0908616110991716e-08
            ],
            "scale" : [
                0.03010900691151619,
                0.03010900691151619,
                0.03010900691151619
            ],
            "translation" : [
                0.34371525049209595,
                0.3209775686264038,
                -0.017604989930987358
            ]
        },
        {
            "mesh" : 5,
            "name" : "Shape_IndexedFaceSet.005",
            "rotation" : [
                0.5002852082252502,
                0.49992725253105164,
                0.4999625086784363,
                0.4998248815536499
            ],
            "scale" : [
                0.029712839052081108,
                0.029712844640016556,
                0.17986169457435608
            ],
            "translation" : [
                0.07396728545427322,
                0.3210369646549225,
                -0.017471278086304665
            ]
        },
        {
            "mesh" : 6,
            "name" : "Shape_IndexedFaceSet.006",
            "rotation" : [
                0,
                0.7071067094802856,
                -0.7071068286895752,
                -3.0908616110991716e-08
            ],
            "scale" : [
                0.03010900691151619,
                0.03010900691151619,
                0.03010900691151619
            ],
            "translation" : [
                -0.01594880037009716,
                0.3210568428039551,
                -0.017426710575819016
            ]
        },
        {
            "mesh" : 7,
            "name" : "Shape_IndexedFaceSet.007",
            "rotation" : [
                0.4993264079093933,
                -0.5002076029777527,
                -0.5002049803733826,
                0.5002604126930237
            ],
            "scale" : [
                0.02971283718943596,
                0.02971283718943596,
                0.17986169457435608
            ],
            "translation" : [
                -0.10586977005004883,
                0.3211311399936676,
                -0.017342517152428627
            ]
        },
        {
            "mesh" : 8,
            "name" : "Shape_IndexedFaceSet.008",
            "rotation" : [
                0.5006715655326843,
                0.4997905194759369,
                0.49979618191719055,
                0.4997413456439972
            ],
            "scale" : [
                0.02971283160150051,
                0.02971283346414566,
                0.17986167967319489
            ],
            "translation" : [
                -0.28571173548698425,
                0.3212796747684479,
                -0.01717415638267994
            ]
        },
        {
            "mesh" : 9,
            "name" : "Shape_IndexedFaceSet.009",
            "rotation" : [
                0,
                0.7071067094802856,
                -0.7071068286895752,
                -3.0908616110991716e-08
            ],
            "scale" : [
                0.03010900691151619,
                0.03010900691151619,
                0.03010900691151619
            ],
            "translation" : [
                -0.3756326735019684,
                0.321353942155838,
                -0.0170899648219347
            ]
        }
    ],
    "materials" : [
        {
            "doubleSided" : true,
            "name" : "Shape",
            "pbrMetallicRoughness" : {
                "baseColorFactor" : [
                    0.013701386749744415,
                    0.8713669180870056,
                    0.013702303171157837,
                    1
                ],
                "metallicFactor" : 0,
                "roughnessFactor" : 0.4000000059604645
            }
        },
        {
            "doubleSided" : true,
            "name" : "Shape.001",
            "pbrMetallicRoughness" : {
                "baseColorFactor" : [
                    0.5394787788391113,
                    1,
                    0,
                    1
                ],
                "metallicFactor" : 0,
                "roughnessFactor" : 0.4000000059604645
            }
        }
    ],
    "meshes" : [
        {
            "name" : "Shape_IndexedFaceSet",
            "primitives" : [
                {
                    "attributes" : {
                        "POSITION" : 0,
                        "NORMAL" : 1,
                        "TEXCOORD_0" : 2
                    },
                    "indices" : 3,
                    "material" : 0
                }
            ]
        },
        {
            "name" : "Shape_IndexedFaceSet.001",
            "primitives" : [
                {
                    "attributes" : {
                        "POSITION" : 4,
                        "NORMAL" : 5,
                        "TEXCOORD_0" : 6
                    },
                    "indices" : 3,
                    "material" : 1
                }
            ]
        },
        {
            "name" : "Shape_IndexedFaceSet.002",
            "primitives" : [
                {
                    "attributes" : {
                        "POSITION" : 7,
                        "NORMAL" : 8,
                        "TEXCOORD_0" : 9
                    },
                    "indices" : 3,
                    "material" : 0
                }
            ]
        },
        {
            "name" : "Shape_IndexedFaceSet.003",
            "primitives" : [
                {
                    "attributes" : {
                        "POSITION" : 10,
                        "NORMAL" : 11,
                        "TEXCOORD_0" : 12
                    },
                    "indices" : 13,
                    "material" : 0
                }
            ]
        },
        {
            "name" : "Shape_IndexedFaceSet.004",
            "primitives" : [
                {
                    "attributes" : {
                        "POSITION" : 14,
                        "NORMAL" : 15,
                        "TEXCOORD_0" : 16
                    },
                    "indices" : 3,
                    "material" : 0
                }
            ]
        },
        {
            "name" : "Shape_IndexedFaceSet.005",
            "primitives" : [
                {
                    "attributes" : {
                        "POSITION" : 17,
                        "NORMAL" : 18,
                        "TEXCOORD_0" : 19
                    },
                    "indices" : 13,
                    "material" : 1
                }
            ]
        },
        {
            "name" : "Shape_IndexedFaceSet.006",
            "primitives" : [
                {
                    "attributes" : {
                        "POSITION" : 20,
                        "NORMAL" : 21,
                        "TEXCOORD_0" : 22
                    },
                    "indices" : 3,
                    "material" : 1
                }
            ]
        },
        {
            "name" : "Shape_IndexedFaceSet.007",
            "primitives" : [
                {
                    "attributes" : {
                        "POSITION" : 23,
                        "NORMAL" : 24,
                        "TEXCOORD_0" : 25
                    },
                    "indices" : 13,
                    "material" : 1
                }
            ]
        },
        {
            "name" : "Shape_IndexedFaceSet.008",
            "primitives" : [
                {
                    "attributes" : {
                        "POSITION" : 26,
                        "NORMAL" : 27,
                        "TEXCOORD_0" : 28
                    },
                    "indices" : 13,
                    "material" : 0
                }
            ]
        },
        {
            "name" : "Shape_IndexedFaceSet.009",
            "primitives" : [
                {
                    "attributes" : {
                        "POSITION" : 29,
                        "NORMAL" : 30,
                        "TEXCOORD_0" : 31
                    },
                    "indices" : 3,
                    "material" : 0
                }
            ]
        }
    ],
    "accessors" : [
        {
            "bufferView" : 0,
            "componentType" : 5126,
            "count" : 960,
            "max" : [
                1,
                1,
                1
            ],
            "min" : [
                -1,
                -1,
                -1
            ],
            "type" : "VEC3"
        },
        {
            "bufferView" : 1,
            "componentType" : 5126,
            "count" : 960,
            "type" : "VEC3"
        },
        {
            "bufferView" : 2,
            "componentType" : 5126,
            "count" : 960,
            "type" : "VEC2"
        },
        {
            "bufferView" : 3,
            "componentType" : 5123,
            "count" : 960,
            "type" : "SCALAR"
        },
        {
            "bufferView" : 4,
            "componentType" : 5126,
            "count" : 960,
            "max" : [
                1,
                1,
                1
            ],
            "min" : [
                -1,
                -1,
                -1
            ],
            "type" : "VEC3"
        },
        {
            "bufferView" : 5,
            "componentType" : 5126,
            "count" : 960,
            "type" : "VEC3"
        },
        {
            "bufferView" : 6,
            "componentType" : 5126,
            "count" : 960,
            "type" : "VEC2"
        },
        {
            "bufferView" : 7,
            "componentType" : 5126,
            "count" : 960,
            "max" : [
                1,
                1,
                1
            ],
            "min" : [
                -1,
                -1,
                -1
            ],
            "type" : "VEC3"
        },
        {
            "bufferView" : 8,
            "componentType" : 5126,
            "count" : 960,
            "type" : "VEC3"
        },
        {
            "bufferView" : 9,
            "componentType" : 5126,
            "count" : 960,
            "type" : "VEC2"
        },
        {
            "bufferView" : 10,
            "componentType" : 5126,
            "count" : 290,
            "max" : [
                1,
                1,
                0.5
            ],
            "min" : [
                -1,
                -1,
                -0.5
            ],
            "type" : "VEC3"
        },
        {
            "bufferView" : 11,
            "componentType" : 5126,
            "count" : 290,
            "type" : "VEC3"
        },
        {
            "bufferView" : 12,
            "componentType" : 5126,
            "count" : 290,
            "type" : "VEC2"
        },
        {
            "bufferView" : 13,
            "componentType" : 5123,
            "count" : 432,
            "type" : "SCALAR"
        },
        {
            "bufferView" : 14,
            "componentType" : 5126,
            "count" : 960,
            "max" : [
                1,
                1,
                1
            ],
            "min" : [
                -1,
                -1,
                -1
            ],
            "type" : "VEC3"
        },
        {
            "bufferView" : 15,
            "componentType" : 5126,
            "count" : 960,
            "type" : "VEC3"
        },
        {
            "bufferView" : 16,
            "componentType" : 5126,
            "count" : 960,
            "type" : "VEC2"
        },
        {
            "bufferView" : 17,
            "componentType" : 5126,
            "count" : 290,
            "max" : [
                1,
                1,
                0.5
            ],
            "min" : [
                -1,
                -1,
                -0.5
            ],
            "type" : "VEC3"
        },
        {
            "bufferView" : 18,
            "componentType" : 5126,
            "count" : 290,
            "type" : "VEC3"
        },
        {
            "bufferView" : 19,
            "componentType" : 5126,
            "count" : 290,
            "type" : "VEC2"
        },
        {
            "bufferView" : 20,
            "componentType" : 5126,
            "count" : 960,
            "max" : [
                1,
                1,
                1
            ],
            "min" : [
                -1,
                -1,
                -1
            ],
            "type" : "VEC3"
        },
        {
            "bufferView" : 21,
            "componentType" : 5126,
            "count" : 960,
            "type" : "VEC3"
        },
        {
            "bufferView" : 22,
            "componentType" : 5126,
            "count" : 960,
            "type" : "VEC2"
        },
        {
            "bufferView" : 23,
            "componentType" : 5126,
            "count" : 290,
            "max" : [
                1,
                1,
                0.5
            ],
            "min" : [
                -1,
                -1,
                -0.5
            ],
            "type" : "VEC3"
        },
        {
            "bufferView" : 24,
            "componentType" : 5126,
            "count" : 290,
            "type" : "VEC3"
        },
        {
            "bufferView" : 25,
            "componentType" : 5126,
            "count" : 290,
            "type" : "VEC2"
        },
        {
            "bufferView" : 26,
            "componentType" : 5126,
            "count" : 290,
            "max" : [
                1,
                1,
                0.5
            ],
            "min" : [
                -1,
                -1,
                -0.5
            ],
            "type" : "VEC3"
        },
        {
            "bufferView" : 27,
            "componentType" : 5126,
            "count" : 290,
            "type" : "VEC3"
        },
        {
            "bufferView" : 28,
            "componentType" : 5126,
            "count" : 290,
            "type" : "VEC2"
        },
        {
            "bufferView" : 29,
            "componentType" : 5126,
            "count" : 960,
            "max" : [
                1,
                1,
                1
            ],
            "min" : [
                -1,
                -1,
                -1
            ],
            "type" : "VEC3"
        },
        {
            "bufferView" : 30,
            "componentType" : 5126,
            "count" : 960,
            "type" : "VEC3"
        },
        {
            "bufferView" : 31,
            "componentType" : 5126,
            "count" : 960,
            "type" : "VEC2"
        }
    ],
    "bufferViews" : [
        {
            "buffer" : 0,
            "byteLength" : 11520,
            "byteOffset" : 0
        },
        {
            "buffer" : 0,
            "byteLength" : 11520,
            "byteOffset" : 11520
        },
        {
            "buffer" : 0,
            "byteLength" : 7680,
            "byteOffset" : 23040
        },
        {
            "buffer" : 0,
            "byteLength" : 1920,
            "byteOffset" : 30720
        },
        {
            "buffer" : 0,
            "byteLength" : 11520,
            "byteOffset" : 32640
        },
        {
            "buffer" : 0,
            "byteLength" : 11520,
            "byteOffset" : 44160
        },
        {
            "buffer" : 0,
            "byteLength" : 7680,
            "byteOffset" : 55680
        },
        {
            "buffer" : 0,
            "byteLength" : 11520,
            "byteOffset" : 63360
        },
        {
            "buffer" : 0,
            "byteLength" : 11520,
            "byteOffset" : 74880
        },
        {
            "buffer" : 0,
            "byteLength" : 7680,
            "byteOffset" : 86400
        },
        {
            "buffer" : 0,
            "byteLength" : 3480,
            "byteOffset" : 94080
        },
        {
            "buffer" : 0,
            "byteLength" : 3480,
            "byteOffset" : 97560
        },
        {
            "buffer" : 0,
            "byteLength" : 2320,
            "byteOffset" : 101040
        },
        {
            "buffer" : 0,
            "byteLength" : 864,
            "byteOffset" : 103360
        },
        {
            "buffer" : 0,
            "byteLength" : 11520,
            "byteOffset" : 104224
        },
        {
            "buffer" : 0,
            "byteLength" : 11520,
            "byteOffset" : 115744
        },
        {
            "buffer" : 0,
            "byteLength" : 7680,
            "byteOffset" : 127264
        },
        {
            "buffer" : 0,
            "byteLength" : 3480,
            "byteOffset" : 134944
        },
        {
            "buffer" : 0,
            "byteLength" : 3480,
            "byteOffset" : 138424
        },
        {
            "buffer" : 0,
            "byteLength" : 2320,
            "byteOffset" : 141904
        },
        {
            "buffer" : 0,
            "byteLength" : 11520,
            "byteOffset" : 144224
        },
        {
            "buffer" : 0,
            "byteLength" : 11520,
            "byteOffset" : 155744
        },
        {
            "buffer" : 0,
            "byteLength" : 7680,
            "byteOffset" : 167264
        },
        {
            "buffer" : 0,
            "byteLength" : 3480,
            "byteOffset" : 174944
        },
        {
            "buffer" : 0,
            "byteLength" : 3480,
            "byteOffset" : 178424
        },
        {
            "buffer" : 0,
            "byteLength" : 2320,
            "byteOffset" : 181904
        },
        {
            "buffer" : 0,
            "byteLength" : 3480,
            "byteOffset" : 184224
        },
        {
            "buffer" : 0,
            "byteLength" : 3480,
            "byteOffset" : 187704
        },
        {
            "buffer" : 0,
            "byteLength" : 2320,
            "byteOffset" : 191184
        },
        {
            "buffer" : 0,
            "byteLength" : 11520,
            "byteOffset" : 193504
        },
        {
            "buffer" : 0,
            "byteLength" : 11520,
            "byteOffset" : 205024
        },
        {
            "buffer" : 0,
            "byteLength" : 7680,
            "byteOffset" : 216544
        }
    ],
    "buffers" : [
        {
            "byteLength" : 224224,
            "uri" : "BeCl2.bin"
        }
    ]
}
